<?xml version="1.0" encoding="utf-8"?>
<!-- Generator: Adobe Illustrator 16.0.3, SVG Export Plug-In . SVG Version: 6.00 Build 0)  -->
<!DOCTYPE svg PUBLIC "-//W3C//DTD SVG 1.1//EN" "http://www.w3.org/Graphics/SVG/1.1/DTD/svg11.dtd">
<svg version="1.1" id="Isolation_Mode" xmlns="http://www.w3.org/2000/svg" xmlns:xlink="http://www.w3.org/1999/xlink" x="0px"
	 y="0px" width="40px" height="40px" viewBox="0 0 40 40" enable-background="new 0 0 40 40" xml:space="preserve">
<defs><style>.cls-1{fill:#D0021B;}</style></defs><title>alert_red</title>
<path class="cls-1" d="M34.943,33.16L21.184,5.656c-0.303-0.663-1.087-0.954-1.75-0.65c-0.288,0.132-0.518,0.362-0.65,0.65L5.056,33.16
	c-0.327,0.656-0.06,1.453,0.597,1.781c0.185,0.092,0.389,0.139,0.595,0.139h27.504c0.733,0.002,1.33-0.592,1.331-1.324
	C35.084,33.549,35.036,33.345,34.943,33.16 M8.392,32.432L20,9.208l11.607,23.2L8.392,32.432z"/>
<rect class="cls-1" x="18.672" y="16.528" width="2.648" height="7.953"/>
<path class="cls-1" d="M20,26.872c-0.884,0-1.6,0.716-1.6,1.601c0,0.883,0.716,1.6,1.6,1.6s1.6-0.717,1.6-1.6C21.6,27.588,20.884,26.872,20,26.872
	"/>
</svg>
