<svg id="Isolation_Mode" data-name="Isolation Mode" xmlns="http://www.w3.org/2000/svg" viewBox="0 0 75 50"><defs><style>.cls-1{fill:#ddd;}</style></defs><title>apps_over</title><path class="cls-1" d="M32.08,8.33H22.33a1.5,1.5,0,0,0-1.5,1.5v9.75a1.5,1.5,0,0,0,1.5,1.5h9.75a1.5,1.5,0,0,0,1.5-1.5V9.83A1.5,1.5,0,0,0,32.08,8.33Zm-1.5,9.75H23.83V11.33h6.75Z"/><path class="cls-1" d="M52.67,8.33H42.92a1.5,1.5,0,0,0-1.5,1.5v9.75a1.5,1.5,0,0,0,1.5,1.5h9.75a1.5,1.5,0,0,0,1.5-1.5V9.83A1.5,1.5,0,0,0,52.67,8.33Zm-1.5,9.75H44.42V11.33h6.75Z"/><path class="cls-1" d="M32.08,28.92H22.33a1.5,1.5,0,0,0-1.5,1.5v9.75a1.5,1.5,0,0,0,1.5,1.5h9.75a1.5,1.5,0,0,0,1.5-1.5V30.42A1.5,1.5,0,0,0,32.08,28.92Zm-1.5,9.75H23.83V31.92h6.75Z"/><path class="cls-1" d="M52.67,28.92H42.92a1.5,1.5,0,0,0-1.5,1.5v9.75a1.5,1.5,0,0,0,1.5,1.5h9.75a1.5,1.5,0,0,0,1.5-1.5V30.42A1.5,1.5,0,0,0,52.67,28.92Zm-1.5,9.75H44.42V31.92h6.75Z"/></svg>