<svg id="Isolation_Mode" data-name="Isolation Mode" xmlns="http://www.w3.org/2000/svg" viewBox="0 0 75 50"><defs><style>.cls-1{fill:#ddd;}</style></defs><title>cloud_over</title><path class="cls-1" d="M42.28,44h-10l-10.06,0a14.9,14.9,0,0,1-2-29.66,11.21,11.21,0,0,1,20.64-2.44,9.29,9.29,0,0,1,5.38-1.75c4.78,0,8.34,3.41,9.07,8.45A13,13,0,0,1,63.61,22a12.48,12.48,0,0,1,4.1,9.27c0,7.18-5.78,12.64-13.45,12.7C50.28,44,46.27,44,42.28,44ZM31,9.05a8.17,8.17,0,0,0-8.1,6.87,1.51,1.51,0,0,1-1.4,1.27,11.87,11.87,0,0,0,.66,23.73l10.07,0c7.21,0,14.66,0,22,0,5.07,0,10.46-3.44,10.46-9.68a9.52,9.52,0,0,0-3.12-7A9.94,9.94,0,0,0,54,21.59a1.52,1.52,0,0,1-1.13-.38,1.54,1.54,0,0,1-.51-1.08c-.11-3.49-2.06-7-6.18-7a6.34,6.34,0,0,0-4.75,2.2,1.5,1.5,0,0,1-1.42.5,1.48,1.48,0,0,1-1.15-1A8.4,8.4,0,0,0,31,9.05Z"/></svg>