<svg id="Isolation_Mode" data-name="Isolation Mode" xmlns="http://www.w3.org/2000/svg" viewBox="0 0 50 50"><defs><style>.cls-1{fill:#fff;}</style></defs><title>cross_white</title><path class="cls-1" d="M25,44.64A19.64,19.64,0,1,1,44.64,25,19.66,19.66,0,0,1,25,44.64ZM25,8.36A16.64,16.64,0,1,0,41.64,25,16.67,16.67,0,0,0,25,8.36Z"/><polygon class="cls-1" points="18.96 33.35 16.62 31.02 18.96 28.67 18.96 28.67 31.04 16.65 33.38 19 18.96 33.35"/><polygon class="cls-1" points="16.65 18.96 18.98 16.62 21.33 18.96 21.33 18.96 33.35 31.04 31 33.38 16.65 18.96"/></svg>