<svg id="Isolation_Mode" data-name="Isolation Mode" xmlns="http://www.w3.org/2000/svg" viewBox="0 0 75 50"><defs><style>.cls-1{fill:#ddd;}</style></defs><title>globe_over</title><path class="cls-1" d="M37.5,5.36A19.64,19.64,0,1,0,57.14,25,19.66,19.66,0,0,0,37.5,5.36ZM54.06,23.5H45.88c-.18-5.42-1.29-10.84-3.26-14.33A16.66,16.66,0,0,1,54.06,23.5ZM37.5,41.64c-2.09,0-5.08-5.85-5.37-15.14H42.87C42.58,35.79,39.59,41.64,37.5,41.64ZM32.13,23.5c.29-9.29,3.28-15.14,5.37-15.14s5.08,5.85,5.37,15.14Zm.25-14.33c-2,3.49-3.08,8.91-3.25,14.33H20.94A16.66,16.66,0,0,1,32.38,9.17ZM20.94,26.5h8.19c.17,5.42,1.28,10.84,3.25,14.33A16.66,16.66,0,0,1,20.94,26.5ZM42.62,40.83c2-3.49,3.08-8.91,3.26-14.33h8.18A16.66,16.66,0,0,1,42.62,40.83Z"/></svg>