<?xml version="1.0" standalone="no"?>
<!DOCTYPE svg PUBLIC "-//W3C//DTD SVG 1.1//EN" "http://www.w3.org/Graphics/SVG/1.1/DTD/svg11.dtd" >
<svg xmlns="http://www.w3.org/2000/svg">
<metadata>Generated by IcoMoon</metadata>
<defs>
<font id="bt-icon-font" horiz-adv-x="1024">
<font-face units-per-em="1024" ascent="960" descent="-64" />
<missing-glyph horiz-adv-x="1024" />
<glyph unicode="&#x20;" d="" />
<glyph unicode="&#x21;" glyph-name="favourite" d="M509.054 960c-14.257 0-28.593-7.483-35.682-22.607l-134.695-287.035-305.231-46.71c-31.665-4.805-44.583-43.481-22.213-66.402l222.129-227.722-52.066-318.937c-4.096-25.442 16.148-45.765 38.912-45.765 6.302 0 12.839 1.575 19.062 4.962l269.785 149.189 269.785-149.189c6.223-3.387 12.761-4.962 19.062-4.962 22.764 0 43.008 20.322 38.912 45.765l-52.066 318.937 222.129 227.722c22.37 22.922 9.452 61.598-22.213 66.402l-305.231 46.71-134.695 287.035c-7.089 15.124-21.425 22.607-35.682 22.607zM509.054 827.904l99.092-211.023 17.802-38.124 41.59-6.302 229.455-35.052-196.372-201.334 6.38-39.227 38.991-238.828-236.938 130.914-236.938-130.914 38.991 238.828 6.38 39.227-196.372 201.334 271.045 41.354 17.802 38.124 99.092 211.023z" />
<glyph unicode="&#x23;" glyph-name="calendar" d="M661.442 960.013v-63.872l-384 0.128v63.744h-64.064v-63.744l-192.064 0.064v-896.192l896.064-2.432v898.368l-191.936 0.064v63.872h-64zM85.314 832.269h128.064v-63.808h64.064v63.744l384-0.064v-63.872h64v63.872l127.936-0.064v-128.128h-768.064v128.32zM85.314 64.013v575.936h768.064v-578.112l-768.064 2.176zM310.101 512.122h63.744v64h-63.744zM438.165 512.122h63.744v64h-63.744zM566.293 512.122h63.808v64h-63.808zM693.717 512.122h63.808v64h-63.808zM310.101 383.866h63.744v64h-63.744zM438.165 383.866h63.744v64h-63.744zM566.293 383.866h63.808v64h-63.808zM693.717 383.866h63.808v64h-63.808zM181.973 256.122h63.744v64h-63.744zM310.101 256.122h63.744v64h-63.744zM438.165 256.122h63.744v64h-63.744zM566.293 256.122h63.808v64h-63.808zM693.717 256.122h63.808v64h-63.808zM181.973 127.802h63.744v64h-63.744zM310.101 127.802h63.744v64h-63.744z" />
<glyph unicode="&#x24;" glyph-name="blocked" d="M811.904 148.139c-80.384-80.384-187.307-124.587-300.971-124.587-99.243 0-192.085 35.413-267.861 97.365l596.053 596.053c61.952-75.776 97.365-168.619 97.365-267.861 0-113.664-44.203-220.587-124.587-300.971zM209.963 750.080c80.469 80.384 187.307 124.587 300.971 124.587 99.243 0 192.085-35.413 267.861-97.365l-596.053-596.053c-61.952 75.776-97.365 168.619-97.365 267.861 0 113.664 44.203 220.501 124.587 300.971zM872.235 810.411c-99.84 99.755-230.571 149.589-361.301 149.589s-261.461-49.835-361.301-149.589c-199.509-199.509-199.509-523.093 0-722.603 99.84-99.755 230.571-149.589 361.301-149.589s261.461 49.835 361.301 149.589c199.509 199.509 199.509 523.093 0 722.603z" />
<glyph unicode="&#x25;" glyph-name="outgoingcall" d="M-0.016 589.911c0-112.719 85.937-241.506 241.585-397.154 240.167-240.167 419.289-311.926 568.714-162.501l108.229 108.229c7.719 7.641 11.5 17.723 11.5 27.806s-3.781 20.165-11.5 27.884l-188.101 188.022c-15.36 15.439-40.251 15.439-55.69 0l-53.327-53.406c-40.645-40.645-162.501 81.29-162.501 81.29s-90.585 85.937-90.585 138.555c0 9.216 2.757 17.408 9.295 23.946l53.406 53.406c7.719 7.641 11.579 17.723 11.579 27.806s-3.86 20.165-11.579 27.884l-188.101 188.022c-15.36 15.36-40.251 15.36-55.69 0l-108.15-108.229c-53.563-53.563-79.084-110.198-79.084-171.559zM78.753 589.911c0 40.881 17.802 77.666 56.005 115.87l80.345 80.345 132.332-132.332-25.521-25.521c-20.874-20.874-32.374-49.152-32.374-79.636 0-78.060 80.502-162.895 113.664-194.245 114.452-114.53 211.732-143.439 273.881-81.29l25.521 25.521 132.332-132.332-80.345-80.345c-51.515-51.515-147.456-147.456-457.334 162.501-147.062 146.983-218.506 258.678-218.506 341.465zM894.874 805.675l-55.69-55.69 90.27-90.348-377.383-0.709v-78.060h377.383l-90.27-90.27 55.69-55.69 185.423 185.344z" />
<glyph unicode="&#x26;" glyph-name="light-check" d="M367.185 158.369l530.99 530.99 96.544-96.544-622.383-622.383-4.62 4.62-5.151-5.151-333.283 333.283 96.544 96.544 241.359-241.359z" />
<glyph unicode="&#x28;" glyph-name="remove" d="M486.4-12.8c-266.24 0-486.4 220.16-486.4 486.4s220.16 486.4 486.4 486.4 486.4-220.16 486.4-486.4-220.16-486.4-486.4-486.4zM486.4 908.8c-240.64 0-435.2-194.56-435.2-435.2s194.56-435.2 435.2-435.2c240.64 0 435.2 194.56 435.2 435.2s-194.56 435.2-435.2 435.2zM204.8 448v51.2h563.2v-51.2z" />
<glyph unicode="&#x29;" glyph-name="plus" d="M512-64c-283.307 0-512 228.693-512 512s228.693 512 512 512c283.307 0 512-228.693 512-512s-228.693-512-512-512zM512 891.733c-245.76 0-443.733-197.973-443.733-443.733s197.973-443.733 443.733-443.733c245.76 0 443.733 197.973 443.733 443.733s-197.973 443.733-443.733 443.733zM477.867 755.2h68.267v-614.4h-68.267v614.4zM204.8 482.133h614.4v-68.267h-614.4v68.267z" />
<glyph unicode="&#x2a;" glyph-name="missedcall" d="M527.754 93.538l-425.354 417.477 55.138 63.015 370.215-370.215 417.477 417.477 55.138-55.138zM157.538 211.692h-78.769v393.846h393.846v-78.769h-315.077z" />
<glyph unicode="&#x40;" glyph-name="light-close" d="M151.379 901.679l812.035-817.131-90.792-90.226-812.035 817.131 90.792 90.226zM973.377 798.719l-834.513-794.161-88.24 92.724 834.513 794.161 88.24-92.724z" />
<glyph unicode="&#x5e;" glyph-name="profile" d="M170.667 263.506c0 102.042 86.176 184.494 191.379 184.494h302.128c104.606 0 189.16-83.048 189.16-185.090v-326.91l-682.667 0.511v326.995zM512 960c-125.66 0-227.556-101.915-227.556-227.599s101.896-227.512 227.556-227.512c125.66 0 227.556 101.828 227.556 227.512s-101.896 227.599-227.556 227.599z" />
<glyph unicode="&#x61;" glyph-name="apps" d="M416 768h-192c-17.7 0-32-14.298-32-32v-192c0-17.7 14.3-32 32-32h192c17.7 0 32 14.3 32 32v192c0 17.702-14.3 32-32 32zM384 704v-128h-128v128h128zM800 768h-192c-17.7 0-32-14.298-32-32v-192c0-17.7 14.3-32 32-32h192c17.702 0 32 14.3 32 32v192c0 17.702-14.298 32-32 32zM768 704v-128h-128v128h128zM800 384h-192c-17.7 0-32-14.3-32-32v-192c0-17.7 14.3-32 32-32h192c17.702 0 32 14.3 32 32v192c0 17.7-14.298 32-32 32zM768 320v-128h-128v128h128zM416 384h-192c-17.7 0-32-14.3-32-32v-192c0-17.7 14.3-32 32-32h192c17.7 0 32 14.3 32 32v192c0 17.7-14.3 32-32 32zM384 320v-128h-128v128h128z" />
<glyph unicode="&#x62;" glyph-name="arrow-down" d="M512 303.975l-249.4 249.4 45.25 45.249 204.15-204.149 204.147 204.149 45.254-45.249-249.402-249.4z" />
<glyph unicode="&#x63;" glyph-name="arrow-left" d="M602.75 213.225l-249.375 249.4 249.375 249.375 45.25-45.248-204.125-204.127 204.125-204.15-45.25-45.25z" />
<glyph unicode="&#x64;" glyph-name="arrow-right" d="M421.25 213.225l-45.25 45.25 204.125 204.15-204.125 204.127 45.25 45.248 249.374-249.375-249.374-249.4z" />
<glyph unicode="&#x65;" glyph-name="arrow-up" d="M716.147 326.6l-204.147 204.15-204.15-204.15-45.25 45.25 249.4 249.398 249.402-249.398-45.254-45.25z" />
<glyph unicode="&#x66;" glyph-name="attach" d="M512.025 1.2c-105.875 0-192.025 86.15-192.025 192.025v511.274c0 105.875 86.125 192 192 192 105.125 0 190.65-85.523 190.65-190.675v-384.399c0-70.525-57.402-127.925-127.974-127.925-70.525 0-127.925 57.4-127.925 127.925v382.575h64v-382.575c0-35.225 28.675-63.925 63.925-63.925 35.3 0 63.975 28.7 63.975 63.925v384.399c0 69.824-56.8 126.675-126.65 126.675-70.6 0-128-57.402-128-128v-511.274c0-70.6 57.425-128.025 128.025-128.025 51.2 0 97.35 30.375 117.625 77.35l58.753-25.3c-30.381-70.5-99.628-116.050-176.378-116.050z" />
<glyph unicode="&#x67;" glyph-name="close" d="M649.376 630.624l-137.376-137.374-137.375 137.374-45.251-45.248 137.375-137.376-137.375-137.375 45.251-45.251 137.375 137.375 137.376-137.375 45.248 45.251-137.374 137.375 137.374 137.376-45.248 45.248zM737.728 222.275c-60.275-60.275-140.478-93.45-225.728-93.45s-165.4 33.175-225.725 93.45c-60.275 60.325-93.45 140.475-93.45 225.725s33.175 165.402 93.45 225.728c60.325 60.275 140.475 93.446 225.725 93.446s165.453-33.171 225.728-93.446c60.275-60.326 93.446-140.478 93.446-225.728s-33.171-165.4-93.446-225.725zM782.976 718.976c-74.848 74.797-172.901 112.198-270.976 112.198s-196.125-37.402-270.975-112.198c-149.651-149.651-149.651-392.301 0-541.951 74.85-74.8 172.9-112.2 270.975-112.2s196.128 37.4 270.976 112.2c149.651 149.65 149.651 392.3 0 541.951z" />
<glyph unicode="&#x68;" glyph-name="check" d="M447.925 276l-149.35 149.375 45.226 45.251 104.275-104.25 233.378 232.3 45.094-45.35-278.622-277.325zM512 831.174c-98.075 0-196.125-37.402-270.975-112.198-149.651-149.651-149.651-392.301 0-541.951 74.85-74.8 172.9-112.2 270.975-112.2s196.128 37.4 270.976 112.2c149.651 149.65 149.651 392.3 0 541.951-74.848 74.797-172.901 112.198-270.976 112.198zM512 767.174c85.25 0 165.402-33.171 225.728-93.446 60.275-60.326 93.446-140.478 93.446-225.728s-33.171-165.4-93.446-225.725c-60.326-60.275-140.478-93.45-225.728-93.45s-165.4 33.175-225.725 93.45c-60.275 60.325-93.45 140.475-93.45 225.725s33.175 165.402 93.45 225.728c60.325 60.275 140.475 93.446 225.725 93.446z" />
<glyph unicode="&#x69;" glyph-name="document-new" d="M575 511.475v147.398l231.649 231.603 48.378-48.378-211.654-211.526v-50.47l53.203 0.147 211.597 211.578 48.403-48.403-231.648-231.499-149.928-0.45zM800 64h-576c-17.7 0-32 14.3-32 32v704c0 17.702 14.3 32 32 32h352v-64h-320v-640h512v320h64v-352c0-17.7-14.298-32-32-32z" />
<glyph unicode="&#x6a;" glyph-name="document-check" d="M768 128h-512v640h320v-192h192zM640 741.498l101.498-101.498h-101.498zM822.624 649.376l-173.248 173.248c-6.003 6.003-14.126 9.376-22.626 9.376h-402.75c-17.7 0-32-14.298-32-32v-704c0-17.7 14.3-32 32-32h576c17.702 0 32 14.3 32 32v530.752c0 8.474-3.373 16.621-9.376 22.624zM419.275 403.7l-45.25-45.25 97.575-97.575 178.378 178.375-45.252 45.25-133.125-133.125-52.325 52.325z" />
<glyph unicode="&#x6b;" glyph-name="email" d="M128 192v473.523l384-255.998 384 255.998v-473.523zM838.298 704l-326.298-217.525-326.3 217.525zM928 768h-832c-17.7 0-32-14.298-32-32v-576c0-17.7 14.3-32 32-32h832c17.702 0 32 14.3 32 32v576c0 17.702-14.298 32-32 32z" />
<glyph unicode="&#x6c;" glyph-name="help" d="M737.728 222.275c-60.275-60.275-140.478-93.45-225.728-93.45s-165.4 33.175-225.725 93.45c-60.275 60.325-93.45 140.475-93.45 225.725s33.175 165.402 93.45 225.728c60.325 60.275 140.475 93.446 225.725 93.446s165.453-33.171 225.728-93.446c60.275-60.326 93.446-140.478 93.446-225.728s-33.171-165.4-93.446-225.725zM782.976 718.976c-74.848 74.797-172.901 112.198-270.976 112.198s-196.125-37.402-270.975-112.198c-149.651-149.651-149.651-392.301 0-541.951 74.85-74.8 172.9-112.2 270.975-112.2s196.128 37.4 270.976 112.2c149.651 149.65 149.651 392.3 0 541.951zM524.725 661.6c-18.225 0-36-1.747-53.25-5.152-17.25-3.475-34-8.896-50.25-16.173v-66.95c34.5 16.602 64.775 24.947 90.7 24.947 16.675 0 29.775-3.923 39.325-11.648 9.5-7.776 14.25-20.224 14.25-37.399 0-9.825-1.95-19.325-5.875-28.5-3.975-9.225-9.275-17.975-15.9-26.35-6.675-8.375-14.125-16.35-22.4-23.925-8.324-7.55-17.075-14.825-26.175-21.775l-38-29.425v-85.225h76.7v57.225l21.924 17.050c12.225 9.325 23.651 19.4 34.426 30.15 10.749 10.725 20.075 22.325 28 34.7 7.9 12.4 14.175 25.375 18.85 38.975 4.678 13.625 7.052 28.076 7.052 43.525 0 34.097-10.577 60.248-31.652 78.552-21.125 18.272-50.35 27.398-87.725 27.398zM495.050 298.125c-11.25 0-20.6-4.15-28.076-12.525-7.45-8.35-11.174-18.7-11.174-31.050 0-12.275 3.725-22.625 11.174-30.95 7.475-8.375 16.826-12.525 28.076-12.525s20.65 4.15 28.1 12.525c7.45 8.325 11.2 18.675 11.2 30.95 0 12.35-3.75 22.7-11.2 31.050-7.45 8.375-16.85 12.525-28.1 12.525z" />
<glyph unicode="&#x6d;" glyph-name="history" d="M761.126 697.126c-137.377 137.376-360.876 137.376-498.252 0-119.6-119.603-135.325-303.101-44.425-441.276h-91.725v-64h193v192.15h-64v-67.575c-56.5 109.4-38.125 244.925 52.4 335.447 54.476 54.477 126.876 84.429 203.875 84.429s149.402-29.952 203.872-84.429c54.477-54.47 84.454-126.872 84.454-203.872s-29.978-149.4-84.454-203.875c-54.47-54.425-126.847-84.45-203.847-84.45v-64c94.1 0 182.573 36.675 249.101 103.2 137.376 137.375 137.376 360.875 0 498.252zM480 640v-205.25l137.375-137.375 45.249 45.251-118.624 118.625v178.75h-64z" />
<glyph unicode="&#x6e;" glyph-name="download" d="M832.128 448v-383.9h-640.128v383.9h-64v-383.9c0-35.275 28.725-64 64-64h640.128c35.27 0 64 28.725 64 64v383.9h-64zM768.102 191.125h-511.652v-64h511.652v64zM726.624 470.775l-45.248 45.25-137.376-137.375v389.35h-64v-389.35l-137.375 137.375-45.251-45.25 214.625-214.625 214.624 214.625z" />
<glyph unicode="&#x6f;" glyph-name="memory" d="M768 341.15v-149.15h-512v512h64v-128h64v128h64v-128h64v128h64v-128h64v101.325l128-128.55zM822.701 584.602l-173.325 173.997c-2.675 2.726-5.952 4.678-9.376 6.278v1.523h-5.325c-2.6 0.698-5.2 1.6-7.95 1.6h-402.725c-17.7 0-32-14.298-32-32v-576c0-17.7 14.3-32 32-32h576c17.702 0 32 14.3 32 32v402c0 8.475-3.347 16.598-9.299 22.602zM384.225 383.5l255.549 0.225v-63.825h-255.549zM320 255.65h384v192.35l-384-0.35v-192z" />
<glyph unicode="&#x70;" glyph-name="upload" d="M832.128 448v-383.9h-640.128v383.9h-64v-383.9c0-35.275 28.725-64 64-64h640.128c35.27 0 64 28.725 64 64v383.9h-64zM768.102 191.125h-511.652v-64h511.652v64zM480 690.752v-389.352h64v389.352l137.376-137.377 45.248 45.249-214.624 214.624-214.625-214.624 45.251-45.249 137.375 137.377z" />
<glyph unicode="&#x71;" glyph-name="play" d="M256 704v-512l512 256z" />
<glyph unicode="&#x72;" glyph-name="undo" d="M768.026 639.923h-418.476l58.55 58.528-45.25 45.248-135.8-135.776 135.8-135.773 45.25 45.251-58.55 58.525h418.476c70.573 0 127.974-57.4 127.974-127.95 0-70.575-57.402-127.975-127.974-127.975h-704.026v-64h704.026c105.85 0 191.974 86.125 191.974 191.975s-86.125 191.948-191.974 191.948z" />
<glyph unicode="&#x73;" glyph-name="zoom" d="M630.725 374.525l240.699-240.724-45.222-45.226-240.726 240.7c16.625 13.575 31.675 28.625 45.25 45.25zM128 576c0 141.152 114.85 256 256 256s256-114.848 256-256c0-141.15-114.85-256-256-256s-256 114.85-256 256zM961.952 133.8l-295.251 295.25c23.046 44.2 37.299 93.675 37.299 146.95 0 176.723-143.275 320-320 320s-320-143.277-320-320c0-176.725 143.275-320 320-320 53.275 0 102.75 14.25 146.95 37.3l295.252-295.25 135.75 135.75zM416 704h-64v-95.098h-96v-64.003h96v-96.9h64v96.9h96v64.003h-96v95.098z" />
<glyph unicode="&#x74;" glyph-name="search" d="M630.725 374.525l240.699-240.724-45.222-45.226-240.726 240.7c16.625 13.575 31.675 28.625 45.25 45.25zM128 576c0 141.152 114.85 256 256 256s256-114.848 256-256c0-141.15-114.85-256-256-256s-256 114.85-256 256zM960.077 135.725l-293.376 293.325c23.046 44.2 37.299 93.675 37.299 146.95 0 176.723-143.275 320-320 320s-320-143.277-320-320c0-176.725 143.275-320 320-320 53.275 0 102.75 14.25 146.95 37.3l293.325-293.375 135.802 135.8z" />
<glyph unicode="&#x75;" glyph-name="settings" d="M722.547 724.198c32.326 0 58.579-26.272 58.579-58.547s-26.253-58.554-58.579-58.554c-32.275 0-58.547 26.278-58.547 58.554s26.272 58.547 58.547 58.547zM722.547 553.15c62.054 0 112.525 50.472 112.525 112.501 0 62.048-50.47 112.474-112.525 112.474-48.422 0-89.447-30.95-105.222-73.926l-425.325-0.198v-64l421.25 0.198c11.6-49.798 56.049-87.048 109.297-87.048zM722.547 158.7c-32.275 0-58.547 26.3-58.547 58.575s26.272 58.55 58.547 58.55c32.326 0 58.579-26.275 58.579-58.55s-26.253-58.575-58.579-58.575zM722.547 329.75c-48.422 0-89.422-30.95-105.222-73.924h-425.325v-64h421.225c11.625-49.8 56.074-87.075 109.322-87.075 62.054 0 112.525 50.475 112.525 112.525 0 62-50.47 112.475-112.525 112.475zM301.425 513.9c32.3 0 58.575-26.275 58.575-58.575s-26.275-58.55-58.575-58.55c-32.275 0-58.55 26.25-58.55 58.55s26.275 58.575 58.55 58.575zM301.425 342.85c48.175 0 89.025 30.55 105.050 73.15h425.525v64h-420.975c-11.3 50.2-56.051 87.825-109.6 87.825-62.025 0-112.476-50.451-112.476-112.5 0-62 50.451-112.475 112.476-112.475z" />
<glyph unicode="&#x76;" glyph-name="print" d="M831.776 320.6h-63.629v127.65h-511.997v-127.65h-63.924v319.649h639.551zM704.147 128.25h-383.997v256h383.997zM320.15 767.75h384.253v-63.501h-384.253zM863.776 704.25h-95.373v95.501c0 17.651-14.304 32-32 32h-448.253c-17.65 0-32-14.349-32-32v-95.501h-95.924c-17.651 0-32-14.349-32-32v-383.649c0-17.7 14.349-32 32-32h95.924v-160.35c0-17.65 14.35-32 32-32h447.997c17.702 0 32 14.35 32 32v160.35h95.629c17.696 0 32 14.3 32 32v383.649c0 17.651-14.304 32-32 32zM288.15 512.075c17.725 0 32.1 14.375 32.1 32.075 0 17.725-14.375 32.1-32.1 32.1-17.7 0-32.075-14.374-32.075-32.1 0-17.7 14.375-32.075 32.075-32.075z" />
<glyph unicode="&#x77;" glyph-name="document" d="M256 128v640h320v-192h192v-448zM640 741.498l101.498-101.498h-101.498zM822.624 649.376l-173.248 173.248c-6.003 6.003-14.126 9.376-22.626 9.376h-402.75c-17.7 0-32-14.298-32-32v-704c0-17.7 14.3-32 32-32h576c17.702 0 32 14.3 32 32v530.752c0 8.474-3.373 16.621-9.376 22.624z" />
<glyph unicode="&#x78;" glyph-name="alert" d="M231.55 128l280.45 560.877 280.422-560.877zM872.851 110.3l-332.226 664.452c-5.9 11.821-17.251 17.696-28.625 17.696s-22.725-5.875-28.625-17.696l-332.225-664.452c-10.625-21.275 4.85-46.3 28.625-46.3h664.449c23.776 0 39.277 25.025 28.627 46.3zM480 320h64v192h-64v-192zM512 262.35c-21.175 0-38.35-17.15-38.35-38.35s17.175-38.35 38.35-38.35c21.175 0 38.35 17.15 38.35 38.35s-17.175 38.35-38.35 38.35z" />
</font>
</defs>
</svg>
