<?xml version="1.0" encoding="UTF-8"?>
<svg width="30px" height="30px" viewBox="0 0 30 30" version="1.1" xmlns="http://www.w3.org/2000/svg" xmlns:xlink="http://www.w3.org/1999/xlink">
    <!-- Generator: Sketch 49.3 (51167) - http://www.bohemiancoding.com/sketch -->
    <title>Group</title>
    <desc>Created with Sketch.</desc>
    <defs></defs>
    <g id="Symbols" stroke="none" stroke-width="1" fill="none" fill-rule="evenodd">
        <g id="note">
            <g id="Group">
                <rect id="Rectangle-3" stroke="#333333" stroke-width="2" x="1" y="1" width="28" height="28" rx="14"></rect>
                <path d="M16.76,22 L14.24,22 L14.24,12.12 L16.76,12.12 L16.76,22 Z M13.92,8.76 C13.92,8.3333312 14.0666652,7.986668 14.36,7.72 C14.6533348,7.453332 15.033331,7.32 15.5,7.32 C15.966669,7.32 16.3466652,7.453332 16.64,7.72 C16.9333348,7.986668 17.08,8.3333312 17.08,8.76 C17.08,9.1866688 16.9333348,9.5299987 16.64,9.79 C16.3466652,10.0500013 15.966669,10.18 15.5,10.18 C15.033331,10.18 14.6533348,10.0500013 14.36,9.79 C14.0666652,9.5299987 13.92,9.1866688 13.92,8.76 Z" id="i" fill="#333333"></path>
            </g>
        </g>
    </g>
</svg>