<svg id="Isolation_Mode" data-name="Isolation Mode" xmlns="http://www.w3.org/2000/svg" viewBox="0 0 75 50"><defs><style>.cls-1{fill:#ddd;}</style></defs><title>mobile_over</title><path class="cls-1" d="M37.5,43.37a1.65,1.65,0,1,0-1.65-1.65A1.65,1.65,0,0,0,37.5,43.37Z"/><path class="cls-1" d="M49.09,1.81H25.91a1.66,1.66,0,0,0-1.66,1.66V46.53a1.66,1.66,0,0,0,1.66,1.66H49.09a1.66,1.66,0,0,0,1.66-1.66V3.47A1.66,1.66,0,0,0,49.09,1.81ZM27.56,5.12H47.44V35.25H27.56ZM47.44,44.87H27.56V38.56H47.44Z"/></svg>