<svg id="Isolation_Mode" data-name="Isolation Mode" xmlns="http://www.w3.org/2000/svg" viewBox="0 0 75 50"><defs><style>.cls-1{fill:#ddd;}</style></defs><title>router_over</title><path class="cls-1" d="M37.5,26.65A1.65,1.65,0,1,0,35.85,25,1.65,1.65,0,0,0,37.5,26.65Z"/><path class="cls-1" d="M65,7A1.52,1.52,0,0,0,63.5,5.49h-52A1.52,1.52,0,0,0,10,7V18h0V21h0V29h0V32h0V43a1.52,1.52,0,0,0,1.51,1.51h52A1.52,1.52,0,0,0,65,43V32h0V29h0V21h0V18h0ZM13,8.51H62V18H13Zm49,33H13V32H62ZM62,29H13V21H62Z"/></svg>